<svg width="128" height="17" viewBox="0 0 128 17" fill="none" xmlns="http://www.w3.org/2000/svg">
<path d="M103.918 0.518329C106.263 1.79222 125.961 1.37981 127.535 1.92052C128.639 2.51623 126.03 11.6626 124.881 12.9731C124.467 13.4405 124.03 13.5047 123.076 13.2022C122.697 13.0831 121.157 12.9364 119.054 12.8448C113.399 12.5882 106.331 12.5607 101.436 12.6248C101.171 12.3316 100.355 13.2755 100.217 12.9273C100.102 12.7257 97.9878 12.5607 94.8273 12.4874C91.6668 12.4232 87.4605 12.4232 83.1852 12.4965C81.0476 12.5332 65.1188 13.1381 64.4292 13.1656C62.7513 13.2389 64.0499 12.6523 62.0732 12.9273C57.8899 13.5047 48.6383 12.3947 45.5007 13.1004C42.9839 13.6594 42.4437 13.6502 39.9498 13.4944C36.8927 13.302 24.1129 13.695 22.7338 14.5107C22.389 14.7123 22.1017 14.6848 22.0672 14.474C21.8143 14.474 20.849 14.5382 20.5961 14.5473C20.4582 14.5473 12.6547 15.0789 12.6087 14.9781C12.5053 14.7856 12.195 14.7123 11.9651 14.8773C11.5054 15.1064 1.73663 16.9668 1.44931 16.3894C0.633332 14.7398 0.564376 7.38972 1.38036 5.49264C1.81708 4.49369 3.78233 4.31956 6.28773 4.20958C8.80463 4.09044 11.8502 4.06295 14.4245 3.22897C14.4245 3.22897 15.9876 3.08233 18.3206 2.86238C42.4322 1.6262 33.0675 3.38792 43.1351 1.5C43.9281 1.5 47.2764 1.4348 49.5771 1.92052C50.9576 1.92052 53.7184 2 54.9707 1.98468C55.4074 1.75556 66.3829 1.65475 66.9001 1.64558C68.8424 1.61809 73.2326 1.52644 75.1748 1.4348C77.5538 1.32482 79.3352 1.1232 79.8868 0.820763C81.8981 1.36148 86.9433 1.26067 91.9656 1.05904C96.9994 0.857422 101.999 0.591647 103.884 0.5L103.918 0.518329Z" fill="#1A7CFF"/>
</svg>
